<svg width="240" height="120" xmlns="http://www.w3.org/2000/svg">

 <g>
  <title>Layer 1</title>
  <g stroke-width="3" transform="rotate(-10, 117.685, 63.1794)" id="svg_34">
   <path d="m57.61473,49.9328c0.47696,-0.46878 0.6241,-0.90791 0.95392,-1.40633c0.89719,-1.35584 0.47696,-2.34388 0.47696,-3.7502c0,-0.70316 -0.37867,-1.42682 -1.43088,-2.57826c-0.4369,-0.47811 -0.46196,-1.03414 -1.43088,-1.8751c-0.66468,-0.5769 -0.95392,-0.70316 -1.90784,-1.17194c-0.47696,-0.23439 -1.2904,-1.01869 -2.3848,-1.40633c-0.8652,-0.30645 -2.21667,-0.69672 -4.29264,-0.93755c-1.8568,-0.2154 -2.86176,0 -3.81568,0.23439c-1.90784,0.46878 -2.89917,0.65391 -4.29264,0.93755c-0.98533,0.20057 -2.17681,0.55497 -3.81568,1.40633c-1.18181,0.61392 -2.12171,1.59516 -2.86176,2.57826c-0.68229,0.90638 -1.43088,2.81265 -1.90784,3.98459c-0.47696,1.17194 -0.47696,2.10949 -0.47696,3.51581c0,1.17194 -0.11802,1.8775 0,2.57826c0.2393,1.42087 1.21213,2.0398 1.90784,2.81265c0.79558,0.88379 1.17625,2.36089 1.43088,2.81265c0.74238,1.31711 2.25077,1.71342 3.81568,2.34388c1.32992,0.53578 3.72458,1.24728 5.24656,1.64071c2.27319,0.58762 2.8395,0.82013 6.67744,0.93755c1.90415,0.05826 3.39914,0.10587 7.1544,-0.46878c3.89087,-0.5954 5.81224,-1.09988 6.67744,-1.40633c0.5472,-0.19382 1.43088,-0.46878 1.90784,-0.46878c0,0 0.47696,0 0.47696,-0.23439l0.47696,-0.23439" id="svg_4" stroke="#000" fill="none"/>
   <path d="m101.49505,44.77627c-0.47696,-1.17194 -1.60296,-3.33185 -2.86176,-4.92214c-0.77327,-0.97691 -1.16878,-1.51191 -2.3848,-2.10949c-1.21602,-0.59757 -1.81913,-0.59744 -4.29264,-0.93755c-2.79392,-0.38417 -3.92507,-0.39096 -5.72352,0c-1.5727,0.34189 -4.08665,1.81606 -5.24656,3.28143c-1.2588,1.59029 -1.90784,2.81265 -1.90784,3.98459c0,0.70316 0.38547,1.43847 1.43088,2.10949c3.08216,1.97834 6.45793,3.6148 9.5392,5.15653c4.02442,2.01364 5.54721,2.47581 9.06224,3.51581c1.82738,0.54068 3.81568,0.93755 4.29264,1.17194c0.47696,0.23439 1.09362,0.30304 1.43088,0.46878c0.33726,0.16574 -0.13083,0.6762 -0.47696,1.17194c-0.78928,1.13046 -1.22016,1.76243 -2.86176,2.34388c-0.8652,0.30645 -3.81568,0.46878 -5.24656,0.46878c-1.43088,0 -3.33872,0 -4.7696,0c-0.95392,0 -2.86176,0 -3.33872,0l-0.47696,0l-0.47696,0" id="svg_6" stroke="#000" fill="none"/>
   <path d="m150.14497,42.90117c0,-0.93755 -0.01387,-1.89096 -0.47696,-3.51581c-0.48162,-1.68988 -1.02593,-2.21136 -1.90784,-2.81265c-1.39442,-0.95073 -3.72953,-0.98946 -4.29264,-1.17194c-2.1443,-0.69484 -5.72352,-0.46878 -7.1544,-0.46878c-2.3848,0 -4.33005,0.18513 -5.72352,0.46878c-0.98533,0.20057 -1.90784,0.70316 -3.81568,1.40633c-1.90784,0.70316 -3.29939,1.4196 -4.29264,2.10949c-1.37739,0.9567 -2.06115,1.59595 -2.86176,2.34388c-1.19576,1.11709 -1.66756,2.79104 -1.90784,3.7502c-0.17483,0.69789 -0.47696,1.8751 -0.47696,2.34388c0,0.23439 -0.20818,0.47437 0,1.40633c0.47983,2.14804 0.54326,2.875 1.90784,4.68775c0.37002,0.49155 0.47696,0.70316 0.47696,0.70316c0.47696,0.70316 1.28423,1.44992 1.90784,1.8751c0.3944,0.2689 0.88367,0.74373 1.43088,0.93755c0.8652,0.30645 1.43088,0.46878 1.90784,0.70316c0.95392,0.46878 1.90784,0.46878 3.81568,0.70316c1.90784,0.23439 3.81568,0.23439 6.67744,0.23439c2.3848,0 4.74001,-0.35118 7.63136,-0.46878c0.95067,-0.03867 1.4564,0.1077 2.3848,0c1.03798,-0.12042 1.99656,-0.39671 2.86176,-0.70316c0.54721,-0.19382 1.94414,-0.37908 2.3848,-0.46878c1.24636,-0.2537 1.43088,-0.46878 2.3848,-0.70316c0,0 0,-0.23439 0,-0.23439c0,0 0.23668,-0.21278 0.47696,-1.17194c0.05828,-0.23263 0,-1.17194 0,-1.64071c0,-0.23439 0,-0.46878 0,-0.70316c0,-0.23439 0,-0.70316 0,-0.93755c0,-0.46878 0,-0.70316 0,-0.93755c0,0 -0.22621,-0.26939 -0.47696,-0.46878c-0.5607,-0.44583 -1.37437,-0.51337 -2.86176,-0.93755c-0.92244,-0.26306 -1.13844,-0.44946 -2.3848,-0.70316c-0.44066,-0.0897 -1.43088,-0.23439 -2.3848,-0.23439c0,0 -1.90784,-0.23439 -2.3848,-0.23439c-0.47696,0 -1.43088,0 -1.43088,0c-0.47696,0 -0.95392,0 -0.95392,0.23439c0,0 0,0.23439 0,0.46878c0,0.46878 0,0.70316 0,0.70316c0,0.23439 0,0.46878 0,0.46878c0,0 0,0.23439 0,0.46878c0,0 0,0 0,0l0.47696,0" id="svg_12" stroke="#000" fill="none"/>
   <ellipse ry="12.07096" rx="21.22472" id="svg_23" cy="45.83101" cx="183.77065" stroke="#000" fill="none"/>
   <path d="m36.62848,79.23125c0.47696,-0.23439 2.56433,-0.72199 3.33872,-1.64071c0.18252,-0.21655 0.95392,-0.70316 0.95392,-0.93755c0,-0.23439 0,-0.46878 0,-0.46878c0,0 -0.19836,-0.17839 -0.95392,-0.93755c-0.66266,-0.66583 -0.95392,-0.93755 -1.90784,-1.17194c0,0 -0.47696,0 -0.47696,0c-0.95392,0 -2.39712,-0.07509 -3.33872,0c-1.4888,0.11872 -1.34681,0.58275 -2.3848,0.70316c-0.4642,0.05385 -0.84434,0.47505 -0.95392,0.70316c-0.49007,1.02017 -1.21214,1.61348 -1.90784,3.51581c-0.76396,2.089 -0.47696,3.28143 -0.47696,3.98459c0,0.46878 0,0.70316 0,1.17194c0,0.23439 0.47696,0.70316 1.43088,1.40633c0.95392,0.70316 1.39947,0.97137 2.3848,1.17194c1.39347,0.28364 2.43788,0.31758 5.72352,-0.23439c2.43041,-0.4083 5.72352,-1.17194 7.63136,-1.64071c1.90784,-0.46878 2.86176,-0.70316 3.33872,-0.93755c0.47696,-0.23439 0.95392,-0.23439 1.43088,-0.23439c0,0 0.47696,0 0.47696,-0.23439l0,0" id="svg_24" stroke="#000" fill="none"/>
   <path d="m57.61473,74.30911c0.47696,0 1.43088,0 2.3848,0c2.3848,0 2.93437,-0.1794 3.81568,0c2.49272,0.5074 2.68873,1.57086 5.24656,4.45336c1.62891,1.83567 1.90784,2.57826 1.90784,2.81265c0,0.70316 0,0.93755 0,1.17194c0,0.23439 0,0.70316 0,0.70316c0,0.23439 0.14664,0.27798 -0.47696,0.70316c-0.3944,0.26891 -0.66148,0.68385 -1.90784,0.93755c-0.44065,0.0897 -0.95392,0.23439 -1.43088,0.23439c-0.95392,0 -1.43088,0 -1.90784,0c-0.47696,0 -1.90784,0 -3.81568,0c-0.95392,0 -1.43088,0 -1.90784,0l0,0" id="svg_25" stroke="#000" fill="none"/>
   <path d="m81.93969,77.59054c-0.47696,-0.70316 -0.47696,-1.17194 -0.47696,-1.40633c0,-1.17194 0,-1.40633 -0.47696,-1.64071c-0.95392,-0.46878 -1.43445,-0.67452 -1.90784,-0.70316c-1.95182,-0.11808 -2.86176,-0.23439 -3.33872,-0.23439c-0.47696,0 -0.95392,0 -1.43088,0c0,0 -0.1397,-0.16573 -0.47696,0c-0.33726,0.16573 -0.23668,0.21277 -0.47696,1.17194c-0.11655,0.46526 0,0.70316 0,0.93755c0,0.46878 0,0.46878 0,0.46878c0,0.23439 0,0.70316 0,1.40633c0,0.23439 0,0.46878 0,0.70316c0,0.23439 0,0.23439 0,0.46878c0,0.46878 -0.95392,1.17194 -0.95392,1.64071c0,0.46878 0,0.70316 0,0.93755c0,0 0,0 0,0.23439c0,1.40633 0,1.8751 0,2.10949c0,0.46878 0,0.70316 0,0.70316c0,0.23439 0.80728,1.21554 1.43088,1.64071c0.3944,0.26891 0.95392,0.46878 0.95392,0.70316c0,0 0.47696,0 0.95392,0c0.47696,0 0.95392,0 1.43088,0c0.95392,0 1.43088,0 1.90784,0c0.95392,0 1.43088,0 1.90784,0c0.47696,0 0.95392,0 1.43088,0l0.47696,0" id="svg_26" stroke="#000" fill="none"/>
   <path d="m102.92593,77.59054c0,-0.46878 0,-1.17194 0,-2.57826c0,-0.23439 0,-1.40633 0,-1.64071c0,-0.23439 0,-0.46878 -0.47696,-0.70316c-0.47696,-0.23439 -0.95392,-0.23439 -1.43088,-0.23439c-0.95392,0 -1.43088,0 -2.3848,0c-0.95392,0 -1.43088,0 -1.90784,0c-0.47696,0 -0.47696,0 -0.95392,0.23439c-0.47696,0.23439 -0.95392,0.46878 -1.43088,0.93755c-0.47696,0.46878 -1.53781,1.14916 -1.90784,1.64071c-0.68229,0.90638 -1.05284,1.62988 -1.43088,2.57826c-0.64833,1.62646 -0.47696,2.57826 -0.47696,3.51581c0,0.46878 0,0.70316 0,1.17194c0,0.23439 -0.21916,0.7157 0,1.17194c0.24504,0.51008 0.47696,0.93755 0.47696,0.93755c0,0.23439 0.47696,0.23439 0.95392,0.46878c0.47696,0.23439 0.86985,0.58275 1.90784,0.70316c0.4642,0.05385 1.90784,0.23439 2.86176,0.23439c0.47696,0 0.95392,0 1.43088,0c0.47696,0 0.95392,0 1.43088,0c0,0 0.47696,0 0.47696,0c0.47696,0 0.95392,-0.23439 1.43088,-0.46878l0.47696,-0.23439l0,0" id="svg_27" stroke="#000" fill="none"/>
   <path d="m108.64945,64.93361c0,0.46878 0.71364,0.91594 0.95392,1.8751c0.17483,0.69789 0,0.93755 0,1.40633c0,0.46878 0.47696,1.17194 0.47696,2.34388c0,1.17194 0,1.8751 0,2.34388c0,0.23439 0.47696,0.93755 0.47696,1.8751c0,2.34388 0.47696,3.51581 0.47696,4.21898c0,0.46878 0,0.70316 0,1.17194c0,0.23439 0,0.46878 0,0.70316c0,0.46878 0,0.70316 0,1.17194c0,0.23439 0,0.23439 0,0.23439c0,0 -0.29139,-0.24317 0,-1.40633c0.24028,-0.95917 0.95392,-2.10949 0.95392,-2.34388c0,-0.70316 0,-0.93755 0,-1.17194c0,-0.23439 1.03648,-0.43426 1.43088,-0.70316c0.62361,-0.42518 0.95392,-0.70316 1.43088,-0.93755c0.47696,-0.23439 0.95392,-0.46878 1.43088,-0.46878c1.43088,0 2.89806,0.14469 3.33872,0.23439c0.62317,0.12685 0.95392,0.46878 1.90784,0.93755c0,0 1.90784,1.64071 2.3848,1.8751c0.47696,0.23439 1.16779,0.65761 1.90784,1.64071c0.68228,0.90638 1.18929,1.84664 1.43088,2.57826c0.15281,0.46272 0,0.93755 0,1.17194l0,0.23439" id="svg_28" stroke="#000" fill="none"/>
   <path d="m145.37537,79.46564c0,-0.23439 0,-0.46878 -0.47696,-0.93755c-0.47696,-0.46878 -0.29443,-1.18978 -0.47696,-1.40633c-0.25813,-0.30624 -0.52365,-0.66201 -1.43088,-0.93755c-0.40572,-0.12322 -0.95392,0 -1.43088,0c0,0 -0.47696,0 -0.95392,0c-0.47696,0 -0.95392,0 -1.43088,0c0,0 0,0 -0.47696,0.23439c-0.47696,0.23439 -0.85369,0.48716 -1.43088,1.17194c-0.40814,0.48421 -1.02274,0.68773 -1.43088,1.17194c-0.57719,0.68478 -0.47696,1.8751 -0.47696,2.57826c0,0.46878 0,0.93755 0,1.17194c0,0.23439 0,0.46878 0,0.46878c0.47696,0 0.95392,0 1.43088,0c0.47696,0 0.95392,0 1.43088,0c0.95392,0 1.90784,-0.23439 1.90784,-0.23439c0.95392,-0.23439 1.43088,-0.70316 1.90784,-0.93755c0.95392,-0.46878 1.8241,-0.49172 2.3848,-0.93755c0.25075,-0.19938 0,-0.23439 0,-0.46878c0,0 -0.31599,-0.07266 0.47696,-0.70316c0.35462,-0.28197 0.95392,-0.46878 0.95392,-0.70316c0,-0.23439 0,-0.23439 0,-0.46878c0,0 -0.18253,-0.01784 0,-0.23439c0.25813,-0.30624 0.47696,-0.46878 0.47696,-0.70316c0,-0.23439 0,-0.46878 0,-0.46878c0,-0.23439 0,-0.23439 0,-0.23439c0,0 0,-0.23439 0,-0.23439c0,0 0,0 0,0.93755c0,0.23439 0,0.46878 0,0.93755c0,0.23439 0,0.46878 0,0.70316c0,0.46878 0,0.70316 0,0.93755c0,0.23439 0,0.70316 0,0.93755c0,0.23439 0,0.46878 0,0.70316c0,0.23439 0,0.23439 0,0.46878l0,0.23439l0,0l0,0" id="svg_29" stroke="#000" fill="none"/>
   <path d="m155.39153,75.71544c0,0.46878 0,1.17194 0,1.64071c0,2.10949 0,2.81265 0,3.28143c0,0.46878 0,0.93755 0,1.17194c0,0.23439 0,0.70316 0,0.93755c0,0.23439 0,0.70316 0,0.70316c0,0 0,-0.23439 0,-0.93755c0,-0.70316 0.47696,-1.8751 0.47696,-2.57826c0,-0.70316 0,-0.93755 0,-1.17194c0,-0.23439 0,-0.46878 0,-0.70316c0,-0.46878 0,-0.70316 0.47696,-0.93755c0.47696,-0.23439 0.47696,-0.46878 1.43088,-0.93755c0,0 0.99022,-0.37908 1.43088,-0.46878c0.62317,-0.12685 0.95392,-0.23439 1.43088,-0.23439c0.95392,0 1.43088,0 1.90784,0c0.47696,0 0.95392,0 0.95392,0c0.47696,0.23439 1.28423,0.74676 1.90784,1.17194c0.3944,0.26891 0.95392,0.46878 0.95392,0.70316c0,0.46878 0,0.70316 0,0.93755c0,0.70316 0,0.93755 0,1.17194c0,0.23439 0,0.70316 0,0.93755c0,0.23439 0,0.46878 0,0.93755c0,0.23439 0,0.46878 0,0.70316c0,0.46878 0,0.70316 0,0.70316l0,0l0,0.23439l0,-0.23439" id="svg_30" stroke="#000" fill="none"/>
   <path d="m184.48609,77.82493c0,0 0.15281,-0.47483 0,-0.93755c-0.4832,-1.46326 -1.43088,-1.64071 -1.90784,-1.8751c-0.47696,-0.23439 -1.34682,-0.34836 -2.3848,-0.46878c-0.9284,-0.1077 -1.43088,0 -2.3848,0c-0.95392,0 -1.92061,-0.05385 -2.3848,0c-1.03798,0.12041 -2.00648,0.42486 -2.86176,0.93755c-1.09028,0.65355 -1.64971,1.10009 -1.90784,1.40633c-0.18253,0.21655 -0.23311,0.4758 0,1.40633c0.24028,0.95917 0.95392,1.8751 1.90784,2.34388c0.47696,0.23439 0.47696,0.70316 0.47696,0.70316c0.47696,0 0.95392,0 1.90784,0c0.47696,0 0.95392,0 1.43088,0c0.47696,0 0.96008,0.03755 1.43088,0c1.4888,-0.11872 2.86176,-0.70316 3.33872,-0.93755c0.95392,-0.46878 1.63066,-0.80134 2.3848,-1.17194c0.75414,-0.3706 0.95392,-0.70316 0.95392,-0.93755c0,-0.23439 0,-0.46878 0,-0.70316c0,-0.23439 0,-0.23439 0,-0.23439c0,0.23439 0.71508,2.09975 0.95392,4.21898c0.05275,0.46806 0,1.17194 0,1.64071c0,0.23439 0,0.46878 0,0.93755c0,0.23439 0,0.46878 0,0.70316c0,0.23439 0,0.70316 0,1.17194c0,0.46878 0,0.93755 0,1.40633c0,0.46878 0,0.93755 -0.47696,1.64071c-0.47696,0.70316 -1.18585,1.83379 -1.43088,2.34388c-0.21916,0.45624 0,0.70316 0,1.17194c0,0 -0.47696,0 -0.47696,0c-0.95392,0 -1.43088,0 -1.90784,0c-0.47696,0 -1.04264,0.07207 -1.90784,-0.23439c-1.6416,-0.58145 -2.3848,-1.17194 -2.86176,-1.40633c-0.47696,-0.23439 -0.95392,-0.46878 -1.90784,-0.93755c-0.47696,-0.23439 -0.95392,-0.46878 -0.95392,-1.17194c0,-0.23439 0,-0.46878 0,-0.70316c0,-0.23439 0,-0.70316 0,-0.93755c0,-0.46878 -0.18253,-0.721 0,-0.93755c0.25813,-0.30624 0.81756,-0.51839 1.90784,-1.17194c0.42765,-0.25634 0.95392,-0.46878 1.90784,-0.93755c0.47696,-0.23439 1.03648,-0.43426 1.43088,-0.70316c0.62361,-0.42518 1.43088,-0.70316 1.90784,-0.93755c0.95392,-0.46878 1.43088,-0.70316 1.90784,-0.93755c0.95392,-0.46878 0.81344,-0.54992 1.90784,-0.93755c0.8652,-0.30645 1.90784,-0.70316 2.3848,-0.93755c0.47696,-0.23439 0.95392,-0.46878 0.95392,-0.70316l0,0" id="svg_31" stroke="#000" fill="none"/>
   <path d="m196.41009,81.80951c0.47696,-0.23439 1.28467,-0.34192 1.90784,-0.46878c0.44066,-0.0897 1.92061,-0.41492 2.3848,-0.46878c1.03798,-0.12041 1.43088,-0.46878 1.90784,-0.70316c0.47696,-0.23439 1.76119,-0.98115 2.3848,-1.40633c0.3944,-0.26891 0.47696,-0.46878 0.47696,-0.93755c0,-0.23439 0,-0.23439 0,-0.23439c0,-0.23439 0,-0.23439 0,-0.70316c0,-0.23439 0,-0.46878 0,-0.70316c0,-0.46878 0,-0.46878 -0.47696,-0.46878c-0.47696,0 -0.95392,0 -0.95392,0c-0.47696,0 -0.47696,0 -0.95392,0c-0.47696,0 -0.95392,0 -0.95392,0c0,0 -0.47696,0 -0.47696,0c-0.47696,0.23439 -2.07296,1.10291 -2.86176,1.64071c-0.62361,0.42518 -1.51344,1.13742 -1.90784,1.40633c-0.62361,0.42518 -1.17275,0.8657 -1.43088,1.17194c-0.18253,0.21655 0,0.70316 0,0.93755c0,0 0.21916,0.24693 0,0.70316c-0.24503,0.51008 -0.95392,1.40633 -0.95392,1.8751c0,0.46878 -0.67452,0.60608 0,0.93755c0.33725,0.16573 0.47696,0 0.95392,0c0.47696,0 1.43088,0 1.90784,0c0.47696,0 0.95392,0 1.90784,0c0.47696,0 0.95392,0 1.43088,0c0.47696,0 1.43088,-0.23439 2.3848,-0.23439c1.43088,0 2.3848,-0.23439 2.86176,-0.23439c0.47696,0 0.95392,0 0.95392,0l0,0l0,0" id="svg_33" stroke="#000" fill="none"/>
  </g>
 </g>
</svg>